<svg width="30" height="63" viewBox="0 0 30 63" fill="none" xmlns="http://www.w3.org/2000/svg">
<path d="M11.4901 61.5427C11.7898 62.0066 12.4088 62.1397 12.8727 61.8399L20.4322 56.9558C20.8961 56.6561 21.0291 56.0371 20.7294 55.5732C20.4297 55.1093 19.8107 54.9762 19.3468 55.2759L12.6273 59.6174L8.28586 52.8979C7.98614 52.434 7.36712 52.3009 6.90324 52.6006C6.43935 52.9003 6.30626 53.5193 6.60598 53.9832L11.4901 61.5427ZM11.9598 1.71916C11.8047 1.1891 11.2492 0.885138 10.7192 1.04024C10.1891 1.19534 9.88514 1.75078 10.0402 2.28083L11.9598 1.71916ZM14.6272 53.8192C14.7062 53.2726 14.3272 52.7654 13.7806 52.6863C13.234 52.6073 12.7268 52.9863 12.6478 53.5329L14.6272 53.8192ZM13.9219 38.8231C13.9038 39.3751 14.3366 39.8372 14.8886 39.8554C15.4406 39.8735 15.9028 39.4407 15.9209 38.8887L13.9219 38.8231ZM15.6493 23.9107C15.6107 23.3598 15.1329 22.9444 14.5819 22.9829C14.031 23.0215 13.6156 23.4993 13.6541 24.0503L15.6493 23.9107ZM11.7642 9.42061C11.871 9.96248 12.3968 10.3152 12.9386 10.2085C13.4805 10.1017 13.8332 9.5759 13.7265 9.03403L11.7642 9.42061ZM13.3077 61.2102C13.8238 58.8095 14.2628 56.3376 14.6272 53.8192L12.6478 53.5329C12.2894 56.0098 11.8583 58.4368 11.3524 60.7898L13.3077 61.2102ZM15.9209 38.8887C16.0864 33.8418 15.9906 28.7903 15.6493 23.9107L13.6541 24.0503C13.9906 28.8611 14.0852 33.8441 13.9219 38.8231L15.9209 38.8887ZM13.7265 9.03403C13.2191 6.45848 12.6293 4.00738 11.9598 1.71916L10.0402 2.28083C10.6909 4.50437 11.2669 6.89642 11.7642 9.42061L13.7265 9.03403ZM10.6501 62.0854C11.2496 63.0131 12.4876 63.2793 13.4154 62.6799L28.5343 52.9117C29.4621 52.3122 29.7283 51.0742 29.1288 50.1464C28.5294 49.2186 27.2914 48.9525 26.3636 49.5519L12.9246 58.2348L4.24169 44.7957C3.64226 43.8679 2.40422 43.6018 1.47645 44.2012C0.548676 44.8006 0.282499 46.0387 0.881926 46.9664L10.6501 62.0854ZM12.9195 1.43832C12.6093 0.378203 11.4984 -0.22972 10.4383 0.0804862C9.37821 0.390692 8.77028 1.50156 9.08049 2.56167L12.9195 1.43832ZM15.6169 53.9624C15.775 52.8692 15.017 51.8548 13.9238 51.6967C12.8306 51.5385 11.8162 52.2965 11.6581 53.3897L15.6169 53.9624ZM12.9225 38.7903C12.8863 39.8943 13.7519 40.8186 14.8558 40.8548C15.9598 40.891 16.8841 40.0254 16.9203 38.9215L12.9225 38.7903ZM16.6468 23.8409C16.5698 22.7391 15.614 21.9083 14.5122 21.9854C13.4103 22.0624 12.5795 23.0181 12.6566 24.12L16.6468 23.8409ZM10.7831 9.61389C10.9966 10.6976 12.0482 11.4031 13.1319 11.1896C14.2157 10.9761 14.9211 9.92448 14.7076 8.84074L10.7831 9.61389ZM14.2853 61.4204C14.8066 58.9958 15.2495 56.5015 15.6169 53.9624L11.6581 53.3897C11.3027 55.8459 10.8755 58.2504 10.3747 60.5796L14.2853 61.4204ZM16.9203 38.9215C17.087 33.8406 16.9905 28.7549 16.6468 23.8409L12.6566 24.12C12.9907 28.8965 13.0847 33.8453 12.9225 38.7903L16.9203 38.9215ZM14.7076 8.84074C14.1952 6.2395 13.5985 3.75889 12.9195 1.43832L9.08049 2.56167C9.72167 4.75287 10.2909 7.1154 10.7831 9.61389L14.7076 8.84074Z" fill="#292825"/>
</svg>
