<svg width="116" height="105" viewBox="0 0 116 105" fill="none" xmlns="http://www.w3.org/2000/svg">
<path d="M100.141 102.749C100.526 103.144 101.159 103.152 101.555 102.767L108.001 96.4859C108.396 96.1004 108.404 95.4673 108.019 95.0718C107.633 94.6762 107 94.668 106.605 95.0535L100.875 100.637L95.292 94.9072C94.9066 94.5117 94.2735 94.5035 93.8779 94.8889C93.4824 95.2744 93.4742 95.9075 93.8596 96.303L100.141 102.749ZM2.0219 1.13716C1.46975 1.12509 1.01235 1.56291 1.00028 2.11506C0.988202 2.66722 1.42601 3.12461 1.97817 3.13669L2.0219 1.13716ZM101.801 96.3882C101.783 95.8362 101.321 95.4035 100.769 95.4217C100.217 95.4399 99.7839 95.9021 99.8021 96.4541L101.801 96.3882ZM98.8948 85.3305C98.9671 85.878 99.4695 86.2633 100.017 86.191C100.565 86.1188 100.95 85.6163 100.878 85.0688L98.8948 85.3305ZM98.7993 73.8963C98.6691 73.3595 98.1284 73.03 97.5917 73.1602C97.055 73.2903 96.7254 73.831 96.8556 74.3677L98.7993 73.8963ZM93.6217 63.7093C93.8123 64.2277 94.3871 64.4933 94.9054 64.3027C95.4237 64.112 95.6894 63.5373 95.4988 63.019L93.6217 63.7093ZM90.9425 52.6043C90.6908 52.1127 90.0882 51.9183 89.5966 52.17C89.1051 52.4217 88.9106 53.0243 89.1623 53.5159L90.9425 52.6043ZM83.4831 43.9471C83.7943 44.4034 84.4164 44.521 84.8727 44.2098C85.3289 43.8986 85.4465 43.2765 85.1354 42.8202L83.4831 43.9471ZM78.1408 33.8468C77.7742 33.4337 77.1422 33.3959 76.7291 33.7625C76.316 34.129 76.2782 34.7611 76.6448 35.1742L78.1408 33.8468ZM68.7494 27.3378C69.1652 27.7014 69.7969 27.6591 70.1605 27.2434C70.5241 26.8276 70.4818 26.1959 70.0661 25.8323L68.7494 27.3378ZM61.057 18.8905C60.5997 18.5809 59.9779 18.7007 59.6683 19.158C59.3587 19.6154 59.4784 20.2371 59.9358 20.5467L61.057 18.8905ZM50.3578 14.8661C50.8485 15.1194 51.4517 14.9269 51.705 14.4361C51.9583 13.9453 51.7658 13.3421 51.275 13.0888L50.3578 14.8661ZM40.8987 8.45958C40.3826 8.26303 39.8048 8.52209 39.6083 9.03822C39.4117 9.55434 39.6708 10.1321 40.1869 10.3286L40.8987 8.45958ZM29.5737 6.92545C30.1077 7.06629 30.6548 6.74756 30.7957 6.21353C30.9365 5.6795 30.6178 5.13242 30.0837 4.99158L29.5737 6.92545ZM18.9724 2.65042C18.4271 2.56321 17.9143 2.9346 17.8271 3.47996C17.7398 4.02531 18.1112 4.53811 18.6566 4.62532L18.9724 2.65042ZM7.55994 3.38095C8.11104 3.4173 8.58725 3.00002 8.62359 2.44894C8.65993 1.89784 8.24266 1.42164 7.69157 1.38529L7.55994 3.38095ZM101.857 102.064C101.882 100.151 101.863 98.2587 101.801 96.3882L99.8021 96.4541C99.8628 98.2937 99.8814 100.155 99.8571 102.038L101.857 102.064ZM100.878 85.0688C100.372 81.2377 99.6762 77.5117 98.7993 73.8963L96.8556 74.3677C97.7155 77.9127 98.3982 81.5686 98.8948 85.3305L100.878 85.0688ZM95.4988 63.019C94.1723 59.4124 92.65 55.9386 90.9425 52.6043L89.1623 53.5159C90.8327 56.7777 92.3228 60.1776 93.6217 63.7093L95.4988 63.019ZM85.1354 42.8202C82.9862 39.669 80.6506 36.6754 78.1408 33.8468L76.6448 35.1742C79.0984 37.9395 81.3818 40.8661 83.4831 43.9471L85.1354 42.8202ZM70.0661 25.8323C67.2202 23.3435 64.2131 21.0272 61.057 18.8905L59.9358 20.5467C63.0246 22.6378 65.9663 24.9039 68.7494 27.3378L70.0661 25.8323ZM51.275 13.0888C47.9409 11.368 44.4784 9.8228 40.8987 8.45958L40.1869 10.3286C43.6977 11.6656 47.0915 13.1803 50.3578 14.8661L51.275 13.0888ZM30.0837 4.99158C26.4727 4.03922 22.7657 3.25702 18.9724 2.65042L18.6566 4.62532C22.3858 5.22168 26.0279 5.99031 29.5737 6.92545L30.0837 4.99158ZM7.69157 1.38529C5.81865 1.26177 3.92842 1.17887 2.0219 1.13716L1.97817 3.13669C3.85564 3.17775 5.71657 3.25938 7.55994 3.38095L7.69157 1.38529ZM99.4246 103.447C100.195 104.238 101.462 104.254 102.253 103.483L115.144 90.9209C115.935 90.15 115.952 88.8838 115.181 88.0927C114.41 87.3016 113.144 87.2853 112.353 88.0561L100.894 99.2226L89.7271 87.7636C88.9562 86.9725 87.6899 86.9561 86.8989 87.727C86.1078 88.4979 86.0914 89.7641 86.8623 90.5552L99.4246 103.447ZM2.04377 0.137405C0.939462 0.113246 0.0246716 0.988889 0.000510298 2.09319C-0.0236412 3.1975 0.851999 4.1123 1.9563 4.13645L2.04377 0.137405ZM102.8 96.3552C102.764 95.2513 101.84 94.3858 100.736 94.4222C99.6316 94.4587 98.7662 95.3831 98.8026 96.4871L102.8 96.3552ZM97.9034 85.4614C98.048 86.5564 99.0529 87.327 100.148 87.1824C101.243 87.0379 102.014 86.033 101.869 84.9379L97.9034 85.4614ZM99.7711 73.6605C99.5107 72.5871 98.4294 71.928 97.356 72.1883C96.2826 72.4487 95.6234 73.53 95.8838 74.6034L99.7711 73.6605ZM92.6832 64.0545C93.0644 65.0912 94.2139 65.6225 95.2506 65.2412C96.2873 64.8599 96.8186 63.7105 96.4373 62.6738L92.6832 64.0545ZM91.8326 52.1485C91.3291 51.1653 90.124 50.7765 89.1408 51.2799C88.1577 51.7834 87.7688 52.9885 88.2723 53.9717L91.8326 52.1485ZM82.6569 44.5106C83.2793 45.4231 84.5236 45.6583 85.4361 45.036C86.3487 44.4136 86.5839 43.1693 85.9615 42.2568L82.6569 44.5106ZM78.8888 33.1831C78.1557 32.3569 76.8916 32.2814 76.0654 33.0145C75.2392 33.7476 75.1637 35.0116 75.8968 35.8379L78.8888 33.1831ZM68.0911 28.0905C68.9226 28.8177 70.1861 28.7331 70.9132 27.9017C71.6404 27.0702 71.5558 25.8067 70.7244 25.0796L68.0911 28.0905ZM61.6176 18.0625C60.7029 17.4432 59.4595 17.6827 58.8402 18.5974C58.221 19.5121 58.4605 20.7556 59.3752 21.3748L61.6176 18.0625ZM49.8991 15.7547C50.8807 16.2613 52.0871 15.8763 52.5937 14.8947C53.1003 13.9132 52.7152 12.7068 51.7337 12.2002L49.8991 15.7547ZM41.2546 7.52505C40.2223 7.13195 39.0669 7.65008 38.6737 8.68233C38.2806 9.71458 38.7988 10.8701 39.831 11.2632L41.2546 7.52505ZM29.3187 7.89239C30.3867 8.17407 31.4809 7.53659 31.7626 6.46854C32.0443 5.4005 31.4068 4.30633 30.3387 4.02464L29.3187 7.89239ZM19.1303 1.66296C18.0396 1.48854 17.014 2.23134 16.8396 3.32206C16.6652 4.41276 17.408 5.43836 18.4987 5.61278L19.1303 1.66296ZM7.49414 4.37879C8.59631 4.45148 9.54873 3.61691 9.62142 2.51474C9.69412 1.41257 8.85955 0.460151 7.75737 0.387452L7.49414 4.37879ZM102.857 102.077C102.882 100.149 102.863 98.2412 102.8 96.3552L98.8026 96.4871C98.8628 98.3112 98.8813 100.157 98.8571 102.025L102.857 102.077ZM101.869 84.9379C101.359 81.0723 100.657 77.3112 99.7711 73.6605L95.8838 74.6034C96.7351 78.1132 97.4114 81.7341 97.9034 85.4614L101.869 84.9379ZM96.4373 62.6738C95.0971 59.0297 93.5586 55.519 91.8326 52.1485L88.2723 53.9717C89.9241 57.1973 91.398 60.5602 92.6832 64.0545L96.4373 62.6738ZM85.9615 42.2568C83.7884 39.0705 81.4267 36.0434 78.8888 33.1831L75.8968 35.8379C78.3223 38.5715 80.5795 41.4647 82.6569 44.5106L85.9615 42.2568ZM70.7244 25.0796C67.8472 22.5633 64.8074 20.2219 61.6176 18.0625L59.3752 21.3748C62.4303 23.4431 65.3394 25.684 68.0911 28.0905L70.7244 25.0796ZM51.7337 12.2002C48.3656 10.4619 44.8687 8.9014 41.2546 7.52505L39.831 11.2632C43.3073 12.587 46.6668 14.0865 49.8991 15.7547L51.7337 12.2002ZM30.3387 4.02464C26.6951 3.06368 22.9557 2.27469 19.1303 1.66296L18.4987 5.61278C22.1958 6.20401 25.8055 6.96585 29.3187 7.89239L30.3387 4.02464ZM7.75737 0.387452C5.86968 0.26296 3.96481 0.179426 2.04377 0.137405L1.9563 4.13645C3.81925 4.17719 5.66552 4.25818 7.49414 4.37879L7.75737 0.387452Z" fill="#292825"/>
</svg>
